<svg xmlns="http://www.w3.org/2000/svg" xmlns:xlink="http://www.w3.org/1999/xlink" width="500" zoomAndPan="magnify" viewBox="0 0 375 374.999991" height="500" preserveAspectRatio="xMidYMid meet" version="1.0"><defs><g/></defs><g fill="#000000" fill-opacity="1"><g transform="translate(107.275244, 197.954298)"><g><path d="M 27.207031 0.996094 C 38.464844 0.996094 48.929688 -6.277344 48.929688 -19.632812 C 48.929688 -27.902344 44.941406 -34.878906 37.570312 -38.265625 C 32.585938 -40.558594 27.703125 -40.558594 27.207031 -40.558594 C 22.023438 -40.558594 17.039062 -43.648438 17.039062 -49.425781 C 17.039062 -55.90625 21.722656 -59.09375 27.207031 -59.09375 C 32.488281 -59.09375 36.972656 -56.503906 37.171875 -50.722656 L 48.730469 -50.722656 C 48.53125 -62.582031 39.261719 -70.753906 27.207031 -70.753906 C 15.945312 -70.753906 5.382812 -62.679688 5.382812 -49.425781 C 5.382812 -41.15625 9.46875 -34.976562 16.742188 -31.589844 C 21.824219 -29.296875 26.605469 -29.296875 27.207031 -29.296875 C 31.890625 -29.097656 37.371094 -25.511719 37.371094 -19.632812 C 37.371094 -14.152344 32.585938 -10.664062 27.207031 -10.664062 C 22.023438 -10.664062 17.238281 -13.554688 17.039062 -19.332031 L 5.382812 -19.332031 C 5.582031 -6.277344 15.148438 0.699219 27.207031 0.996094 Z M 27.207031 0.996094 "/></g></g></g><g fill="#000000" fill-opacity="1"><g transform="translate(157.396123, 197.954298)"><g><path d="M 19.53125 -58.097656 L 54.410156 -58.097656 L 54.410156 -69.757812 L 7.871094 -69.757812 L 7.871094 0 L 54.410156 0 L 54.410156 -11.660156 L 19.53125 -11.660156 L 19.53125 -29.097656 L 48.53125 -29.097656 L 48.53125 -40.660156 L 19.53125 -40.660156 Z M 19.53125 -58.097656 "/></g></g></g><g fill="#000000" fill-opacity="1"><g transform="translate(212.001014, 197.954298)"><g><path d="M 40.058594 -8.070312 L 43.148438 0 L 55.707031 0 L 27.804688 -71.75 L 0 0 L 12.554688 0 L 15.546875 -8.070312 Z M 19.332031 -18.136719 L 27.804688 -42.351562 L 36.273438 -18.136719 Z M 19.332031 -18.136719 "/></g></g></g><g fill="#000000" fill-opacity="1"><g transform="translate(164.504524, 227.002588)"><g><path d="M 5.078125 -6.671875 L 4.359375 0 L 1.65625 0 L 0.265625 -12.53125 L 2.1875 -12.53125 L 3.234375 -2.640625 L 4.1875 -12.53125 L 6.078125 -12.53125 L 7.0625 -2.578125 L 8.09375 -12.53125 L 9.796875 -12.53125 L 8.40625 0 L 5.796875 0 Z M 5.078125 -6.671875 "/></g></g></g><g fill="#000000" fill-opacity="1"><g transform="translate(175.234553, 227.002588)"><g><path d="M 2.6875 -7.25 L 5.390625 -7.25 L 5.390625 -5.453125 L 2.6875 -5.453125 L 2.6875 -1.796875 L 6.078125 -1.796875 L 6.078125 0 L 0.71875 0 L 0.71875 -12.53125 L 6.078125 -12.53125 L 6.078125 -10.734375 L 2.6875 -10.734375 Z M 2.6875 -7.25 "/></g></g></g><g fill="#000000" fill-opacity="1"><g transform="translate(182.477431, 227.002588)"><g><path d="M 3.6875 -12.53125 C 4.707031 -12.53125 5.445312 -12.289062 5.90625 -11.8125 C 6.375 -11.332031 6.609375 -10.609375 6.609375 -9.640625 L 6.609375 -9.203125 C 6.609375 -8.554688 6.503906 -8.023438 6.296875 -7.609375 C 6.097656 -7.191406 5.773438 -6.878906 5.328125 -6.671875 C 5.867188 -6.472656 6.25 -6.140625 6.46875 -5.671875 C 6.6875 -5.210938 6.796875 -4.648438 6.796875 -3.984375 L 6.796875 -2.96875 C 6.796875 -2 6.546875 -1.257812 6.046875 -0.75 C 5.546875 -0.25 4.800781 0 3.8125 0 L 0.71875 0 L 0.71875 -12.53125 Z M 2.6875 -5.640625 L 2.6875 -1.796875 L 3.8125 -1.796875 C 4.144531 -1.796875 4.394531 -1.882812 4.5625 -2.0625 C 4.738281 -2.238281 4.828125 -2.5625 4.828125 -3.03125 L 4.828125 -4.109375 C 4.828125 -4.691406 4.726562 -5.09375 4.53125 -5.3125 C 4.332031 -5.53125 4.007812 -5.640625 3.5625 -5.640625 Z M 2.6875 -10.734375 L 2.6875 -7.421875 L 3.453125 -7.421875 C 3.816406 -7.421875 4.101562 -7.515625 4.3125 -7.703125 C 4.53125 -7.898438 4.640625 -8.25 4.640625 -8.75 L 4.640625 -9.453125 C 4.640625 -9.898438 4.554688 -10.222656 4.390625 -10.421875 C 4.234375 -10.628906 3.976562 -10.734375 3.625 -10.734375 Z M 2.6875 -10.734375 "/></g></g></g><g fill="#000000" fill-opacity="1"><g transform="translate(190.399859, 227.002588)"><g><path d="M 0.46875 -9.515625 C 0.46875 -10.523438 0.707031 -11.300781 1.1875 -11.84375 C 1.675781 -12.394531 2.398438 -12.671875 3.359375 -12.671875 C 4.328125 -12.671875 5.050781 -12.394531 5.53125 -11.84375 C 6.019531 -11.300781 6.265625 -10.523438 6.265625 -9.515625 L 6.265625 -9.03125 L 4.40625 -9.03125 L 4.40625 -9.640625 C 4.40625 -10.097656 4.316406 -10.414062 4.140625 -10.59375 C 3.960938 -10.78125 3.722656 -10.875 3.421875 -10.875 C 3.109375 -10.875 2.863281 -10.78125 2.6875 -10.59375 C 2.519531 -10.414062 2.4375 -10.097656 2.4375 -9.640625 C 2.4375 -9.210938 2.53125 -8.832031 2.71875 -8.5 C 2.90625 -8.175781 3.140625 -7.867188 3.421875 -7.578125 C 3.710938 -7.285156 4.019531 -6.992188 4.34375 -6.703125 C 4.675781 -6.410156 4.984375 -6.085938 5.265625 -5.734375 C 5.554688 -5.390625 5.796875 -5 5.984375 -4.5625 C 6.179688 -4.125 6.28125 -3.601562 6.28125 -3 C 6.28125 -1.988281 6.03125 -1.210938 5.53125 -0.671875 C 5.039062 -0.128906 4.3125 0.140625 3.34375 0.140625 C 2.375 0.140625 1.640625 -0.128906 1.140625 -0.671875 C 0.648438 -1.210938 0.40625 -1.988281 0.40625 -3 L 0.40625 -3.859375 L 2.265625 -3.859375 L 2.265625 -2.875 C 2.265625 -2.425781 2.359375 -2.109375 2.546875 -1.921875 C 2.734375 -1.742188 2.984375 -1.65625 3.296875 -1.65625 C 3.597656 -1.65625 3.84375 -1.742188 4.03125 -1.921875 C 4.21875 -2.109375 4.3125 -2.425781 4.3125 -2.875 C 4.3125 -3.3125 4.210938 -3.691406 4.015625 -4.015625 C 3.828125 -4.347656 3.585938 -4.660156 3.296875 -4.953125 C 3.015625 -5.242188 2.707031 -5.535156 2.375 -5.828125 C 2.050781 -6.117188 1.742188 -6.4375 1.453125 -6.78125 C 1.171875 -7.125 0.9375 -7.515625 0.75 -7.953125 C 0.5625 -8.398438 0.46875 -8.921875 0.46875 -9.515625 Z M 0.46875 -9.515625 "/></g></g></g><g fill="#000000" fill-opacity="1"><g transform="translate(197.750035, 227.002588)"><g><path d="M 0.171875 -12.53125 L 6.265625 -12.53125 L 6.265625 -10.734375 L 4.203125 -10.734375 L 4.203125 0 L 2.234375 0 L 2.234375 -10.734375 L 0.171875 -10.734375 Z M 0.171875 -12.53125 "/></g></g></g><g fill="#000000" fill-opacity="1"><g transform="translate(204.849849, 227.002588)"><g><path d="M 2.59375 -12.53125 L 2.59375 -2.859375 C 2.59375 -2.410156 2.6875 -2.09375 2.875 -1.90625 C 3.0625 -1.726562 3.304688 -1.640625 3.609375 -1.640625 C 3.921875 -1.640625 4.171875 -1.726562 4.359375 -1.90625 C 4.546875 -2.09375 4.640625 -2.410156 4.640625 -2.859375 L 4.640625 -12.53125 L 6.5 -12.53125 L 6.5 -2.984375 C 6.5 -1.972656 6.25 -1.195312 5.75 -0.65625 C 5.257812 -0.113281 4.53125 0.15625 3.5625 0.15625 C 2.59375 0.15625 1.859375 -0.113281 1.359375 -0.65625 C 0.867188 -1.195312 0.625 -1.972656 0.625 -2.984375 L 0.625 -12.53125 Z M 2.59375 -12.53125 "/></g></g></g><g fill="#000000" fill-opacity="1"><g transform="translate(212.629216, 227.002588)"><g><path d="M 0.71875 -12.53125 L 3.828125 -12.53125 C 4.816406 -12.53125 5.550781 -12.265625 6.03125 -11.734375 C 6.519531 -11.210938 6.765625 -10.441406 6.765625 -9.421875 L 6.765625 -3.09375 C 6.765625 -2.082031 6.519531 -1.3125 6.03125 -0.78125 C 5.550781 -0.257812 4.816406 0 3.828125 0 L 0.71875 0 Z M 2.6875 -10.734375 L 2.6875 -1.796875 L 3.796875 -1.796875 C 4.109375 -1.796875 4.351562 -1.882812 4.53125 -2.0625 C 4.707031 -2.238281 4.796875 -2.550781 4.796875 -3 L 4.796875 -9.515625 C 4.796875 -9.972656 4.707031 -10.289062 4.53125 -10.46875 C 4.351562 -10.644531 4.109375 -10.734375 3.796875 -10.734375 Z M 2.6875 -10.734375 "/></g></g></g><g fill="#000000" fill-opacity="1"><g transform="translate(220.587408, 227.002588)"><g><path d="M 0.71875 -12.53125 L 2.6875 -12.53125 L 2.6875 0 L 0.71875 0 Z M 0.71875 -12.53125 "/></g></g></g><g fill="#000000" fill-opacity="1"><g transform="translate(224.647148, 227.002588)"><g><path d="M 2.515625 -2.875 C 2.515625 -2.425781 2.609375 -2.109375 2.796875 -1.921875 C 2.984375 -1.734375 3.234375 -1.640625 3.546875 -1.640625 C 3.847656 -1.640625 4.09375 -1.734375 4.28125 -1.921875 C 4.46875 -2.109375 4.5625 -2.425781 4.5625 -2.875 L 4.5625 -9.640625 C 4.5625 -10.097656 4.46875 -10.414062 4.28125 -10.59375 C 4.09375 -10.78125 3.847656 -10.875 3.546875 -10.875 C 3.234375 -10.875 2.984375 -10.78125 2.796875 -10.59375 C 2.609375 -10.414062 2.515625 -10.097656 2.515625 -9.640625 Z M 0.546875 -9.515625 C 0.546875 -10.523438 0.800781 -11.300781 1.3125 -11.84375 C 1.832031 -12.394531 2.578125 -12.671875 3.546875 -12.671875 C 4.503906 -12.671875 5.238281 -12.394531 5.75 -11.84375 C 6.269531 -11.300781 6.53125 -10.523438 6.53125 -9.515625 L 6.53125 -3 C 6.53125 -1.988281 6.269531 -1.210938 5.75 -0.671875 C 5.238281 -0.128906 4.503906 0.140625 3.546875 0.140625 C 2.578125 0.140625 1.832031 -0.128906 1.3125 -0.671875 C 0.800781 -1.210938 0.546875 -1.988281 0.546875 -3 Z M 0.546875 -9.515625 "/></g></g></g></svg>