<svg xmlns="http://www.w3.org/2000/svg" xmlns:xlink="http://www.w3.org/1999/xlink" width="500" zoomAndPan="magnify" viewBox="0 0 375 374.999991" height="500" preserveAspectRatio="xMidYMid meet" version="1.0"><defs><g/></defs><g fill="#000000" fill-opacity="1"><g transform="translate(51.766981, 227.553977)"><g><path d="M 46.027344 1.6875 C 65.082031 1.6875 82.785156 -10.621094 82.785156 -33.214844 C 82.785156 -47.207031 76.039062 -59.011719 63.5625 -64.742188 C 55.132812 -68.621094 46.871094 -68.621094 46.027344 -68.621094 C 37.261719 -68.621094 28.832031 -73.847656 28.832031 -83.628906 C 28.832031 -94.585938 36.753906 -99.980469 46.027344 -99.980469 C 54.964844 -99.980469 62.550781 -95.597656 62.890625 -85.820312 L 82.445312 -85.820312 C 82.109375 -105.882812 66.429688 -119.707031 46.027344 -119.707031 C 26.976562 -119.707031 9.105469 -106.050781 9.105469 -83.628906 C 9.105469 -69.632812 16.015625 -59.179688 28.324219 -53.445312 C 36.925781 -49.570312 45.015625 -49.570312 46.027344 -49.570312 C 53.953125 -49.230469 63.226562 -43.164062 63.226562 -33.214844 C 63.226562 -23.941406 55.132812 -18.039062 46.027344 -18.039062 C 37.261719 -18.039062 29.167969 -22.929688 28.832031 -32.707031 L 9.105469 -32.707031 C 9.441406 -10.621094 25.628906 1.179688 46.027344 1.6875 Z M 46.027344 1.6875 "/></g></g></g><g fill="#000000" fill-opacity="1"><g transform="translate(136.566971, 227.553977)"><g><path d="M 33.046875 -98.296875 L 92.058594 -98.296875 L 92.058594 -118.023438 L 13.320312 -118.023438 L 13.320312 0 L 92.058594 0 L 92.058594 -19.726562 L 33.046875 -19.726562 L 33.046875 -49.230469 L 82.109375 -49.230469 L 82.109375 -68.789062 L 33.046875 -68.789062 Z M 33.046875 -98.296875 "/></g></g></g><g fill="#000000" fill-opacity="1"><g transform="translate(228.953503, 227.553977)"><g><path d="M 67.777344 -13.65625 L 73.003906 0 L 94.25 0 L 47.039062 -121.394531 L 0 0 L 21.242188 0 L 26.300781 -13.65625 Z M 32.707031 -30.6875 L 47.039062 -71.65625 L 61.371094 -30.6875 Z M 32.707031 -30.6875 "/></g></g></g><g fill="#000000" fill-opacity="1"><g transform="translate(135.84374, 272.951049)"><g><path d="M 8.59375 -11.28125 L 7.390625 0 L 2.8125 0 L 0.453125 -21.1875 L 3.6875 -21.1875 L 5.484375 -4.484375 L 7.078125 -21.1875 L 10.296875 -21.1875 L 11.953125 -4.359375 L 13.6875 -21.1875 L 16.578125 -21.1875 L 14.21875 0 L 9.8125 0 Z M 8.59375 -11.28125 "/></g></g></g><g fill="#000000" fill-opacity="1"><g transform="translate(153.997978, 272.951049)"><g><path d="M 4.546875 -12.25 L 9.109375 -12.25 L 9.109375 -9.234375 L 4.546875 -9.234375 L 4.546875 -3.03125 L 10.296875 -3.03125 L 10.296875 0 L 1.203125 0 L 1.203125 -21.1875 L 10.296875 -21.1875 L 10.296875 -18.15625 L 4.546875 -18.15625 Z M 4.546875 -12.25 "/></g></g></g><g fill="#000000" fill-opacity="1"><g transform="translate(166.252271, 272.951049)"><g><path d="M 6.234375 -21.1875 C 7.972656 -21.1875 9.226562 -20.78125 10 -19.96875 C 10.78125 -19.164062 11.171875 -17.945312 11.171875 -16.3125 L 11.171875 -15.5625 C 11.171875 -14.46875 11 -13.566406 10.65625 -12.859375 C 10.3125 -12.148438 9.765625 -11.625 9.015625 -11.28125 C 9.921875 -10.945312 10.5625 -10.390625 10.9375 -9.609375 C 11.3125 -8.828125 11.5 -7.875 11.5 -6.75 L 11.5 -5.03125 C 11.5 -3.394531 11.070312 -2.144531 10.21875 -1.28125 C 9.375 -0.425781 8.117188 0 6.453125 0 L 1.203125 0 L 1.203125 -21.1875 Z M 4.546875 -9.53125 L 4.546875 -3.03125 L 6.453125 -3.03125 C 7.015625 -3.03125 7.441406 -3.179688 7.734375 -3.484375 C 8.023438 -3.785156 8.171875 -4.328125 8.171875 -5.109375 L 8.171875 -6.96875 C 8.171875 -7.945312 8.003906 -8.617188 7.671875 -8.984375 C 7.335938 -9.347656 6.785156 -9.53125 6.015625 -9.53125 Z M 4.546875 -18.15625 L 4.546875 -12.5625 L 5.84375 -12.5625 C 6.46875 -12.5625 6.957031 -12.722656 7.3125 -13.046875 C 7.664062 -13.367188 7.84375 -13.953125 7.84375 -14.796875 L 7.84375 -15.984375 C 7.84375 -16.742188 7.703125 -17.296875 7.421875 -17.640625 C 7.148438 -17.984375 6.722656 -18.15625 6.140625 -18.15625 Z M 4.546875 -18.15625 "/></g></g></g><g fill="#000000" fill-opacity="1"><g transform="translate(179.656302, 272.951049)"><g><path d="M 0.78125 -16.09375 C 0.78125 -17.8125 1.1875 -19.128906 2 -20.046875 C 2.820312 -20.960938 4.050781 -21.421875 5.6875 -21.421875 C 7.320312 -21.421875 8.546875 -20.960938 9.359375 -20.046875 C 10.179688 -19.128906 10.59375 -17.8125 10.59375 -16.09375 L 10.59375 -15.28125 L 7.453125 -15.28125 L 7.453125 -16.3125 C 7.453125 -17.082031 7.300781 -17.625 7 -17.9375 C 6.707031 -18.25 6.300781 -18.40625 5.78125 -18.40625 C 5.257812 -18.40625 4.847656 -18.25 4.546875 -17.9375 C 4.253906 -17.625 4.109375 -17.082031 4.109375 -16.3125 C 4.109375 -15.582031 4.269531 -14.941406 4.59375 -14.390625 C 4.914062 -13.835938 5.316406 -13.3125 5.796875 -12.8125 C 6.285156 -12.320312 6.804688 -11.828125 7.359375 -11.328125 C 7.921875 -10.835938 8.441406 -10.300781 8.921875 -9.71875 C 9.410156 -9.132812 9.816406 -8.46875 10.140625 -7.71875 C 10.460938 -6.96875 10.625 -6.085938 10.625 -5.078125 C 10.625 -3.367188 10.203125 -2.054688 9.359375 -1.140625 C 8.523438 -0.222656 7.289062 0.234375 5.65625 0.234375 C 4.019531 0.234375 2.785156 -0.222656 1.953125 -1.140625 C 1.117188 -2.054688 0.703125 -3.367188 0.703125 -5.078125 L 0.703125 -6.53125 L 3.84375 -6.53125 L 3.84375 -4.875 C 3.84375 -4.101562 4 -3.566406 4.3125 -3.265625 C 4.625 -2.960938 5.039062 -2.8125 5.5625 -2.8125 C 6.09375 -2.8125 6.515625 -2.960938 6.828125 -3.265625 C 7.140625 -3.566406 7.296875 -4.101562 7.296875 -4.875 C 7.296875 -5.601562 7.132812 -6.242188 6.8125 -6.796875 C 6.488281 -7.347656 6.082031 -7.867188 5.59375 -8.359375 C 5.113281 -8.859375 4.59375 -9.351562 4.03125 -9.84375 C 3.476562 -10.34375 2.957031 -10.882812 2.46875 -11.46875 C 1.988281 -12.050781 1.585938 -12.71875 1.265625 -13.46875 C 0.941406 -14.21875 0.78125 -15.09375 0.78125 -16.09375 Z M 0.78125 -16.09375 "/></g></g></g><g fill="#000000" fill-opacity="1"><g transform="translate(192.092135, 272.951049)"><g><path d="M 0.296875 -21.1875 L 10.59375 -21.1875 L 10.59375 -18.15625 L 7.109375 -18.15625 L 7.109375 0 L 3.78125 0 L 3.78125 -18.15625 L 0.296875 -18.15625 Z M 0.296875 -21.1875 "/></g></g></g><g fill="#000000" fill-opacity="1"><g transform="translate(204.104377, 272.951049)"><g><path d="M 4.390625 -21.1875 L 4.390625 -4.84375 C 4.390625 -4.070312 4.546875 -3.535156 4.859375 -3.234375 C 5.171875 -2.929688 5.585938 -2.78125 6.109375 -2.78125 C 6.640625 -2.78125 7.0625 -2.929688 7.375 -3.234375 C 7.6875 -3.535156 7.84375 -4.070312 7.84375 -4.84375 L 7.84375 -21.1875 L 10.984375 -21.1875 L 10.984375 -5.046875 C 10.984375 -3.335938 10.5625 -2.023438 9.71875 -1.109375 C 8.882812 -0.191406 7.648438 0.265625 6.015625 0.265625 C 4.390625 0.265625 3.15625 -0.191406 2.3125 -1.109375 C 1.476562 -2.023438 1.0625 -3.335938 1.0625 -5.046875 L 1.0625 -21.1875 Z M 4.390625 -21.1875 "/></g></g></g><g fill="#000000" fill-opacity="1"><g transform="translate(217.266362, 272.951049)"><g><path d="M 1.203125 -21.1875 L 6.484375 -21.1875 C 8.148438 -21.1875 9.390625 -20.738281 10.203125 -19.84375 C 11.023438 -18.957031 11.4375 -17.660156 11.4375 -15.953125 L 11.4375 -5.234375 C 11.4375 -3.515625 11.023438 -2.210938 10.203125 -1.328125 C 9.390625 -0.441406 8.148438 0 6.484375 0 L 1.203125 0 Z M 4.546875 -18.15625 L 4.546875 -3.03125 L 6.421875 -3.03125 C 6.941406 -3.03125 7.351562 -3.179688 7.65625 -3.484375 C 7.957031 -3.785156 8.109375 -4.316406 8.109375 -5.078125 L 8.109375 -16.09375 C 8.109375 -16.863281 7.957031 -17.398438 7.65625 -17.703125 C 7.351562 -18.003906 6.941406 -18.15625 6.421875 -18.15625 Z M 4.546875 -18.15625 "/></g></g></g><g fill="#000000" fill-opacity="1"><g transform="translate(230.730903, 272.951049)"><g><path d="M 1.203125 -21.1875 L 4.546875 -21.1875 L 4.546875 0 L 1.203125 0 Z M 1.203125 -21.1875 "/></g></g></g><g fill="#000000" fill-opacity="1"><g transform="translate(237.599615, 272.951049)"><g><path d="M 4.265625 -4.875 C 4.265625 -4.101562 4.421875 -3.5625 4.734375 -3.25 C 5.046875 -2.9375 5.46875 -2.78125 6 -2.78125 C 6.519531 -2.78125 6.9375 -2.9375 7.25 -3.25 C 7.5625 -3.5625 7.71875 -4.101562 7.71875 -4.875 L 7.71875 -16.3125 C 7.71875 -17.082031 7.5625 -17.625 7.25 -17.9375 C 6.9375 -18.25 6.519531 -18.40625 6 -18.40625 C 5.46875 -18.40625 5.046875 -18.25 4.734375 -17.9375 C 4.421875 -17.625 4.265625 -17.082031 4.265625 -16.3125 Z M 0.9375 -16.09375 C 0.9375 -17.8125 1.367188 -19.128906 2.234375 -20.046875 C 3.109375 -20.960938 4.363281 -21.421875 6 -21.421875 C 7.625 -21.421875 8.867188 -20.960938 9.734375 -20.046875 C 10.609375 -19.128906 11.046875 -17.8125 11.046875 -16.09375 L 11.046875 -5.078125 C 11.046875 -3.367188 10.609375 -2.054688 9.734375 -1.140625 C 8.867188 -0.222656 7.625 0.234375 6 0.234375 C 4.363281 0.234375 3.109375 -0.222656 2.234375 -1.140625 C 1.367188 -2.054688 0.9375 -3.367188 0.9375 -5.078125 Z M 0.9375 -16.09375 "/></g></g></g></svg>