<svg width="100%" height="100%" id="svg" viewBox="0 0 1440 590" xmlns="http://www.w3.org/2000/svg" class="transition duration-300 ease-in-out delay-150"><defs><linearGradient id="gradient" x1="0%" y1="50%" x2="100%" y2="50%"><stop offset="5%" stop-color="#f6f4f4"></stop><stop offset="95%" stop-color="#8ED1FC"></stop></linearGradient></defs><path d="M 0,600 C 0,600 0,200 0,200 C 68.53589743589743,217.7923076923077 137.07179487179485,235.5846153846154 226,251 C 314.92820512820515,266.4153846153846 424.24871794871785,279.45384615384614 520,255 C 615.7512820512821,230.54615384615386 697.9333333333335,168.6 764,168 C 830.0666666666665,167.4 880.0179487179487,228.14615384615382 961,245 C 1041.9820512820513,261.8538461538462 1153.9948717948716,234.8153846153846 1239,220 C 1324.0051282051284,205.1846153846154 1382.002564102564,202.5923076923077 1440,200 C 1440,200 1440,600 1440,600 Z" stroke="none" stroke-width="0" fill="url(#gradient)" fill-opacity="0.53" class="transition-all duration-300 ease-in-out delay-150 path-0"></path><defs><linearGradient id="gradient" x1="0%" y1="50%" x2="100%" y2="50%"><stop offset="5%" stop-color="#f6f4f4"></stop><stop offset="95%" stop-color="#8ED1FC"></stop></linearGradient></defs><path d="M 0,600 C 0,600 0,400 0,400 C 65.08461538461538,396.64871794871794 130.16923076923075,393.29743589743595 223,401 C 315.83076923076925,408.70256410256405 436.4076923076924,427.4589743589743 519,435 C 601.5923076923076,442.5410256410257 646.1999999999999,438.8666666666667 726,453 C 805.8000000000001,467.1333333333333 920.792307692308,499.074358974359 996,473 C 1071.207692307692,446.925641025641 1106.6307692307691,362.83589743589744 1174,341 C 1241.3692307692309,319.16410256410256 1340.6846153846154,359.5820512820513 1440,400 C 1440,400 1440,600 1440,600 Z" stroke="none" stroke-width="0" fill="url(#gradient)" fill-opacity="1" class="transition-all duration-300 ease-in-out delay-150 path-1"></path></svg>