<svg width="100%" height="100%" id="svg" viewBox="0 0 1440 590" xmlns="http://www.w3.org/2000/svg" class="transition duration-300 ease-in-out delay-150"><defs><linearGradient id="gradient" x1="0%" y1="50%" x2="100%" y2="50%"><stop offset="5%" stop-color="#f6f4f4"></stop><stop offset="95%" stop-color="#8ed1fc"></stop></linearGradient></defs><path d="M 0,600 C 0,600 0,200 0,200 C 66.2076923076923,176.72051282051282 132.4153846153846,153.44102564102565 201,166 C 269.5846153846154,178.55897435897435 340.54615384615386,226.95641025641024 441,223 C 541.4538461538461,219.04358974358976 671.4000000000001,162.73333333333335 752,150 C 832.5999999999999,137.26666666666665 863.8538461538461,168.1102564102564 938,195 C 1012.1461538461539,221.8897435897436 1129.1846153846154,244.825641025641 1220,245 C 1310.8153846153846,245.174358974359 1375.4076923076923,222.5871794871795 1440,200 C 1440,200 1440,600 1440,600 Z" stroke="none" stroke-width="0" fill="url(#gradient)" fill-opacity="0.53" class="transition-all duration-300 ease-in-out delay-150 path-0" transform="rotate(-180 720 300)"></path><defs><linearGradient id="gradient" x1="0%" y1="50%" x2="100%" y2="50%"><stop offset="5%" stop-color="#f6f4f4"></stop><stop offset="95%" stop-color="#8ed1fc"></stop></linearGradient></defs><path d="M 0,600 C 0,600 0,400 0,400 C 95.26923076923075,434.5051282051282 190.5384615384615,469.0102564102564 271,456 C 351.4615384615385,442.9897435897436 417.11538461538464,382.4641025641026 483,355 C 548.8846153846154,327.5358974358974 614.9999999999999,333.1333333333333 695,351 C 775.0000000000001,368.8666666666667 868.8846153846155,399.0025641025641 954,403 C 1039.1153846153845,406.9974358974359 1115.4615384615386,384.85641025641024 1195,380 C 1274.5384615384614,375.14358974358976 1357.2692307692307,387.57179487179485 1440,400 C 1440,400 1440,600 1440,600 Z" stroke="none" stroke-width="0" fill="url(#gradient)" fill-opacity="1" class="transition-all duration-300 ease-in-out delay-150 path-1" transform="rotate(-180 720 300)"></path></svg>