<svg id="visual" viewBox="0 0 900 600" width="900" height="600" xmlns="http://www.w3.org/2000/svg" xmlns:xlink="http://www.w3.org/1999/xlink" version="1.1"><rect x="0" y="0" width="900" height="600" fill="#f6f4f4"></rect><path d="M0 365L21.5 367.8C43 370.7 86 376.3 128.8 383.5C171.7 390.7 214.3 399.3 257.2 409C300 418.7 343 429.3 385.8 437C428.7 444.7 471.3 449.3 514.2 445.3C557 441.3 600 428.7 642.8 423.5C685.7 418.3 728.3 420.7 771.2 411.7C814 402.7 857 382.3 878.5 372.2L900 362L900 601L878.5 601C857 601 814 601 771.2 601C728.3 601 685.7 601 642.8 601C600 601 557 601 514.2 601C471.3 601 428.7 601 385.8 601C343 601 300 601 257.2 601C214.3 601 171.7 601 128.8 601C86 601 43 601 21.5 601L0 601Z" fill="#f9f8f8"></path><path d="M0 538L21.5 534.2C43 530.3 86 522.7 128.8 512C171.7 501.3 214.3 487.7 257.2 484.2C300 480.7 343 487.3 385.8 494.7C428.7 502 471.3 510 514.2 511.3C557 512.7 600 507.3 642.8 498.3C685.7 489.3 728.3 476.7 771.2 472.5C814 468.3 857 472.7 878.5 474.8L900 477L900 601L878.5 601C857 601 814 601 771.2 601C728.3 601 685.7 601 642.8 601C600 601 557 601 514.2 601C471.3 601 428.7 601 385.8 601C343 601 300 601 257.2 601C214.3 601 171.7 601 128.8 601C86 601 43 601 21.5 601L0 601Z" fill="#f9f8f8"></path></svg>