<svg width="100%" height="100%" id="svg" viewBox="0 0 1440 590" xmlns="http://www.w3.org/2000/svg" class="transition duration-300 ease-in-out delay-150"><defs><linearGradient id="gradient" x1="3%" y1="34%" x2="97%" y2="66%"><stop offset="5%" stop-color="#8ed1fc"></stop><stop offset="95%" stop-color="#f6f4f4"></stop></linearGradient></defs><path d="M 0,600 C 0,600 0,200 0,200 C 103.57894736842107,183.1578947368421 207.15789473684214,166.31578947368422 287,165 C 366.84210526315786,163.68421052631578 422.9473684210526,177.89473684210526 528,188 C 633.0526315789474,198.10526315789474 787.0526315789474,204.1052631578947 903,218 C 1018.9473684210526,231.8947368421053 1096.842105263158,253.68421052631578 1180,252 C 1263.157894736842,250.31578947368422 1351.578947368421,225.1578947368421 1440,200 C 1440,200 1440,600 1440,600 Z" stroke="none" stroke-width="0" fill="url(#gradient)" fill-opacity="0.53" class="transition-all duration-300 ease-in-out delay-150 path-0" transform="rotate(-180 720 300)"></path><defs><linearGradient id="gradient" x1="3%" y1="34%" x2="97%" y2="66%"><stop offset="5%" stop-color="#8ed1fc"></stop><stop offset="95%" stop-color="#f6f4f4"></stop></linearGradient></defs><path d="M 0,600 C 0,600 0,400 0,400 C 115.81818181818178,383.02392344497605 231.63636363636357,366.04784688995215 318,373 C 404.36363636363643,379.95215311004785 461.27272727272737,410.8325358851675 546,419 C 630.7272727272726,427.1674641148325 743.2727272727273,412.62200956937795 844,406 C 944.7272727272727,399.37799043062205 1033.6363636363635,400.67942583732054 1131,401 C 1228.3636363636365,401.32057416267946 1334.1818181818182,400.66028708133973 1440,400 C 1440,400 1440,600 1440,600 Z" stroke="none" stroke-width="0" fill="url(#gradient)" fill-opacity="1" class="transition-all duration-300 ease-in-out delay-150 path-1" transform="rotate(-180 720 300)"></path></svg>